<svg id="svg" version="1.1" xmlns="http://www.w3.org/2000/svg" xmlns:xlink="http://www.w3.org/1999/xlink" width="400" height="318.4466019417476" viewBox="0, 0, 400,318.4466019417476"><g id="svgg"><path id="path0" d="M0.000 33.919 L 0.000 67.837 66.242 67.833 C 118.753 67.829,132.485 67.747,132.489 67.433 C 132.492 67.188,132.583 67.159,132.728 67.357 C 132.856 67.532,133.165 67.719,133.414 67.773 C 133.790 67.854,133.796 67.786,133.448 67.367 C 133.218 67.090,133.122 66.772,133.235 66.659 C 133.347 66.546,133.439 66.622,133.439 66.826 C 133.439 67.030,133.562 67.197,133.713 67.197 C 133.863 67.197,133.990 66.588,133.996 65.844 C 134.001 65.100,134.021 62.611,134.041 60.315 L 134.076 56.139 134.920 56.301 C 135.453 56.402,135.689 56.341,135.560 56.133 C 135.449 55.953,135.559 55.637,135.806 55.432 C 136.176 55.125,136.227 55.190,136.094 55.794 C 135.965 56.381,136.001 56.433,136.273 56.051 C 136.532 55.689,136.616 55.676,136.619 55.998 C 136.622 56.231,136.803 56.357,137.022 56.277 C 137.241 56.196,137.385 55.969,137.341 55.772 C 137.297 55.575,137.404 55.414,137.580 55.414 C 138.053 55.414,137.813 54.651,137.261 54.401 C 136.870 54.224,136.885 54.181,137.341 54.163 C 137.846 54.142,137.898 53.692,137.898 49.363 L 137.898 44.586 138.675 44.586 C 139.103 44.586,139.541 44.443,139.650 44.268 C 139.758 44.092,140.017 43.951,140.226 43.954 C 140.454 43.957,140.417 44.078,140.131 44.258 C 139.755 44.496,139.798 44.547,140.339 44.506 C 140.824 44.470,140.988 44.281,140.906 43.855 C 140.814 43.380,140.880 43.330,141.224 43.616 C 141.584 43.915,141.615 43.783,141.404 42.848 C 141.264 42.228,141.263 41.720,141.402 41.720 C 141.540 41.720,141.675 39.832,141.701 37.526 C 141.754 32.876,141.772 32.793,142.675 33.029 C 143.323 33.198,143.597 32.632,142.969 32.423 C 142.781 32.360,142.960 32.027,143.367 31.683 C 143.775 31.339,144.003 31.185,143.874 31.341 C 143.746 31.497,143.889 31.830,144.193 32.080 C 144.716 32.512,144.716 32.527,144.188 32.361 C 143.831 32.248,143.631 32.353,143.631 32.653 C 143.631 32.911,143.917 33.121,144.268 33.121 C 144.618 33.121,144.904 32.969,144.904 32.784 C 144.904 32.598,145.023 32.520,145.168 32.610 C 145.314 32.699,145.464 30.240,145.503 27.145 C 145.580 21.111,145.566 21.186,146.603 21.164 C 147.028 21.155,147.261 20.972,147.209 20.686 C 147.154 20.386,147.294 20.440,147.607 20.841 C 147.872 21.181,148.089 21.289,148.089 21.080 C 148.089 20.871,148.241 20.701,148.426 20.701 C 148.612 20.701,148.656 20.880,148.525 21.099 C 148.364 21.366,148.464 21.352,148.828 21.056 C 149.244 20.719,149.286 20.514,149.010 20.181 C 148.744 19.861,148.743 19.745,149.006 19.745 C 149.202 19.745,149.346 19.638,149.325 19.506 C 149.021 17.582,149.437 9.554,149.841 9.554 C 150.104 9.554,150.321 9.375,150.323 9.156 C 150.327 8.889,150.405 8.870,150.562 9.100 C 150.831 9.492,152.548 9.555,152.548 9.172 C 152.548 9.032,152.735 8.917,152.963 8.917 C 153.280 8.917,153.396 7.869,153.457 4.459 L 153.537 0.000 76.768 0.000 L 0.000 0.000 0.000 33.919 M219.745 2.866 C 219.745 5.667,219.647 5.933,218.677 5.759 C 218.527 5.732,218.177 5.894,217.899 6.119 C 217.513 6.432,217.450 6.434,217.633 6.131 C 217.764 5.912,217.736 5.732,217.569 5.732 C 217.402 5.732,217.179 5.957,217.074 6.232 C 216.946 6.564,216.668 6.664,216.244 6.529 C 215.355 6.247,215.381 7.409,216.281 8.248 C 216.942 8.864,216.942 8.874,216.311 8.709 C 215.302 8.445,215.219 17.669,216.228 17.989 C 216.583 18.102,217.040 18.091,217.244 17.965 C 217.464 17.829,217.529 17.874,217.403 18.078 C 217.287 18.266,217.372 18.611,217.593 18.844 C 217.813 19.077,217.990 19.554,217.985 19.904 C 217.980 20.255,218.152 20.685,218.366 20.860 C 219.533 21.816,216.981 24.372,214.913 24.317 C 214.208 24.299,213.692 24.436,213.689 24.643 C 213.686 24.872,213.601 24.886,213.451 24.682 C 213.097 24.201,212.427 24.151,212.373 24.602 C 212.346 24.821,212.222 24.355,212.096 23.567 C 211.942 22.597,211.880 23.317,211.905 25.796 C 211.942 29.379,211.958 29.458,212.659 29.433 C 213.056 29.419,213.376 29.597,213.376 29.831 C 213.376 30.064,213.575 30.255,213.819 30.255 C 214.468 30.255,214.749 31.143,214.716 33.095 C 214.671 35.791,213.796 36.358,209.634 36.388 C 208.964 36.393,208.913 36.541,208.857 38.658 L 208.797 40.924 208.599 38.057 C 208.490 36.481,208.348 35.549,208.284 35.987 C 208.220 36.425,208.079 35.780,207.971 34.554 C 207.796 32.571,207.758 32.805,207.629 36.678 C 207.549 39.072,207.556 41.007,207.643 40.977 C 207.994 40.859,209.107 42.265,208.975 42.660 C 208.891 42.912,208.980 42.992,209.194 42.860 C 209.400 42.733,209.554 42.839,209.554 43.108 C 209.554 43.366,209.720 43.633,209.923 43.700 C 211.347 44.175,209.126 47.515,207.478 47.379 C 207.043 47.343,206.686 47.165,206.683 46.985 C 206.680 46.804,206.539 46.871,206.369 47.134 C 206.108 47.538,206.060 47.522,206.056 47.031 C 206.051 46.516,205.998 46.504,205.573 46.929 C 205.311 47.192,205.096 47.640,205.096 47.926 C 205.096 48.212,204.952 48.357,204.777 48.248 C 204.602 48.140,204.459 47.478,204.459 46.778 C 204.459 46.010,204.332 45.582,204.140 45.701 C 203.569 46.054,203.729 53.200,204.303 52.980 C 204.661 52.843,204.729 52.941,204.567 53.361 C 204.419 53.748,204.468 53.854,204.723 53.696 C 204.928 53.569,205.254 53.564,205.448 53.683 C 205.694 53.835,205.670 53.984,205.368 54.175 C 205.024 54.393,205.021 54.450,205.353 54.454 C 205.582 54.456,205.681 54.603,205.572 54.780 C 205.462 54.956,205.705 55.234,206.110 55.397 C 206.515 55.559,206.650 55.701,206.410 55.712 C 206.091 55.727,206.065 55.843,206.311 56.140 C 206.558 56.437,206.478 56.819,206.021 57.542 C 205.320 58.648,203.883 59.207,203.459 58.538 C 203.266 58.234,203.193 58.289,203.190 58.739 C 203.185 59.351,203.180 59.351,202.712 58.739 C 202.251 58.135,202.235 58.138,202.032 58.861 C 201.828 59.587,201.815 59.582,201.350 58.622 C 200.560 56.992,200.361 57.480,200.258 61.306 C 200.196 63.600,200.278 64.971,200.478 64.974 C 200.689 64.976,200.689 65.057,200.477 65.212 C 200.301 65.341,200.125 65.876,200.086 66.401 C 200.048 66.927,200.096 67.178,200.194 66.959 C 200.457 66.369,200.891 66.476,200.840 67.118 C 200.788 67.781,202.729 67.985,203.485 67.396 C 203.836 67.122,203.888 67.132,203.705 67.436 C 203.447 67.865,391.933 68.049,397.373 67.626 L 400.000 67.422 400.000 33.711 L 400.000 0.000 309.873 0.000 L 219.745 0.000 219.745 2.866 M219.131 8.557 C 218.956 8.884,218.903 9.242,219.013 9.353 C 219.124 9.464,219.058 9.554,218.866 9.554 C 218.675 9.554,218.456 9.733,218.381 9.952 C 218.306 10.171,218.278 10.135,218.319 9.873 C 218.476 8.869,218.641 8.432,218.949 8.206 C 219.441 7.844,219.476 7.912,219.131 8.557 M217.628 9.479 C 217.426 9.608,217.195 10.072,217.114 10.510 C 216.988 11.184,216.959 11.147,216.922 10.271 C 216.889 9.479,217.010 9.237,217.436 9.241 C 217.794 9.244,217.863 9.329,217.628 9.479 M212.102 17.779 C 212.102 17.924,212.532 17.979,213.057 17.902 C 213.583 17.825,214.013 17.707,214.013 17.639 C 214.013 17.571,213.583 17.516,213.057 17.516 C 212.532 17.516,212.102 17.634,212.102 17.779 M145.223 31.547 C 145.223 31.911,145.078 32.114,144.899 32.003 C 144.721 31.893,144.650 31.682,144.742 31.534 C 144.834 31.386,144.728 31.192,144.508 31.103 C 144.267 31.006,144.329 30.932,144.666 30.917 C 145.024 30.901,145.223 31.126,145.223 31.547 M204.311 41.063 C 204.217 41.217,204.427 41.267,204.778 41.175 C 205.130 41.083,205.659 41.204,205.955 41.443 C 206.250 41.683,206.392 41.712,206.269 41.508 C 206.147 41.304,206.225 41.078,206.443 41.005 C 206.661 40.933,206.309 40.853,205.661 40.829 C 205.014 40.805,204.406 40.910,204.311 41.063 M0.000 157.324 L 0.000 192.361 45.187 192.355 C 90.001 192.348,90.375 192.343,90.539 191.715 C 90.653 191.280,90.540 191.071,90.177 191.045 C 89.887 191.024,90.080 190.898,90.605 190.764 C 91.131 190.631,91.301 190.504,90.984 190.484 C 90.668 190.463,90.498 190.300,90.608 190.122 C 90.718 189.944,90.942 189.881,91.105 189.982 C 91.279 190.090,91.401 188.979,91.401 187.280 L 91.401 184.395 92.535 184.395 C 93.209 184.395,93.588 184.266,93.471 184.076 C 93.292 183.786,93.897 183.622,94.773 183.722 C 94.973 183.745,95.123 183.190,95.129 182.407 C 95.134 181.661,95.157 179.224,95.180 176.990 L 95.223 172.930 96.019 172.930 C 96.457 172.930,96.817 172.751,96.820 172.532 C 96.823 172.275,96.908 172.251,97.059 172.463 C 97.390 172.929,98.583 172.853,98.487 172.373 C 98.443 172.154,98.551 171.975,98.726 171.975 C 99.199 171.975,98.959 171.212,98.408 170.962 C 98.017 170.785,98.031 170.741,98.487 170.723 C 98.992 170.703,99.045 170.252,99.045 165.924 L 99.045 161.146 100.609 161.146 C 101.922 161.146,102.158 161.057,102.079 160.589 C 102.028 160.283,101.815 160.071,101.606 160.119 C 101.397 160.167,101.323 160.051,101.441 159.860 C 101.585 159.627,101.854 159.692,102.261 160.060 C 102.838 160.583,102.866 160.576,102.866 159.903 C 102.866 159.424,102.739 159.275,102.468 159.437 C 102.236 159.577,102.269 159.426,102.548 159.076 C 102.811 158.746,102.861 158.575,102.661 158.695 C 102.460 158.815,102.217 158.707,102.120 158.454 C 102.002 158.147,102.097 158.053,102.405 158.171 C 102.794 158.321,102.866 157.668,102.866 154.015 L 102.866 149.682 103.636 149.682 C 104.059 149.682,104.478 149.502,104.566 149.283 C 104.695 148.965,104.732 148.965,104.752 149.283 C 104.766 149.502,104.936 149.682,105.130 149.682 C 105.324 149.682,105.400 149.467,105.299 149.204 C 105.188 148.916,105.297 148.726,105.573 148.726 C 105.825 148.726,105.987 148.905,105.934 149.124 C 105.881 149.343,105.897 149.414,105.971 149.281 C 106.045 149.149,106.272 149.134,106.476 149.249 C 106.715 149.382,106.705 149.303,106.449 149.028 C 106.230 148.792,106.053 148.377,106.056 148.105 C 106.060 147.670,106.097 147.668,106.369 148.089 C 106.576 148.408,106.680 146.794,106.683 143.232 C 106.688 137.417,106.548 137.830,108.519 137.816 C 108.954 137.813,109.244 137.609,109.258 137.297 C 109.275 136.908,109.347 136.937,109.554 137.420 C 109.806 138.007,109.830 138.011,109.850 137.466 C 109.865 137.068,110.033 136.936,110.363 137.063 C 111.016 137.313,110.852 136.229,110.191 135.930 C 109.800 135.753,109.815 135.709,110.271 135.691 C 110.779 135.671,110.828 135.188,110.828 130.218 C 110.828 124.922,110.810 124.771,110.191 124.933 C 109.840 125.025,109.634 124.970,109.732 124.811 C 109.830 124.652,110.117 124.522,110.369 124.522 C 110.622 124.522,110.828 124.224,110.828 123.859 C 110.828 123.462,110.668 123.254,110.430 123.341 C 110.211 123.422,110.071 123.659,110.119 123.869 C 110.167 124.079,110.048 124.153,109.853 124.032 C 109.615 123.885,109.604 123.708,109.820 123.492 C 111.025 122.288,111.919 122.307,54.905 122.297 L 0.000 122.286 0.000 157.324 M184.114 122.532 C 184.377 124.198,183.994 128.057,183.506 128.660 C 182.888 129.423,179.953 130.350,179.498 129.925 C 179.344 129.782,178.891 129.789,178.490 129.941 C 177.933 130.153,177.713 130.094,177.558 129.688 C 177.181 128.706,176.762 129.960,176.756 132.086 C 176.751 134.142,177.018 134.410,178.766 134.106 C 178.910 134.081,178.937 134.208,178.827 134.387 C 178.716 134.567,178.848 134.713,179.121 134.713 C 179.394 134.713,179.618 134.928,179.618 135.191 C 179.618 135.454,179.761 135.669,179.936 135.669 C 180.646 135.669,180.304 139.970,179.538 140.684 C 178.571 141.585,173.360 141.932,173.139 141.110 C 173.065 140.832,172.987 141.787,172.967 143.232 C 172.937 145.356,173.022 145.868,173.408 145.900 C 174.816 146.017,175.754 146.500,175.985 147.226 C 176.327 148.306,176.245 151.072,175.848 151.813 C 175.284 152.868,169.753 153.734,169.740 152.770 C 169.737 152.538,169.614 152.576,169.427 152.866 C 168.657 154.057,169.047 157.299,169.984 157.508 C 170.466 157.615,171.075 157.759,171.338 157.829 C 173.188 158.316,173.044 164.049,171.164 164.770 C 170.168 165.153,165.349 164.991,165.179 164.570 C 165.091 164.351,165.007 165.283,164.993 166.640 L 164.968 169.108 166.003 169.146 C 166.572 169.167,167.137 169.169,167.259 169.152 C 168.001 169.046,168.790 170.895,168.790 172.743 C 168.790 175.937,167.865 176.591,163.455 176.517 L 161.465 176.483 161.465 178.687 C 161.465 180.837,161.485 180.892,162.276 180.892 C 165.318 180.892,165.644 186.887,162.655 187.873 C 161.623 188.214,158.580 188.121,157.947 187.729 C 157.733 187.598,157.640 187.968,157.687 188.762 C 157.727 189.442,157.654 190.171,157.524 190.382 C 157.369 190.633,157.515 190.764,157.949 190.764 C 158.495 190.764,158.576 190.903,158.412 191.557 L 158.213 192.350 279.186 192.301 C 345.721 192.273,399.299 192.156,398.248 192.039 L 396.338 191.827 398.169 191.773 C 399.176 191.744,400.000 191.584,400.000 191.417 C 400.000 191.251,399.176 191.063,398.169 191.000 L 396.338 190.885 398.169 190.825 L 400.000 190.764 400.000 157.166 L 400.000 123.567 398.328 123.515 L 396.656 123.463 398.408 123.248 L 400.159 123.034 398.248 122.928 L 396.338 122.823 398.248 122.611 C 399.299 122.495,351.541 122.376,292.118 122.347 C 232.695 122.317,184.093 122.400,184.114 122.532 M0.000 284.554 L 0.000 318.471 24.204 318.471 L 48.408 318.471 48.408 317.577 C 48.408 316.844,48.184 316.585,47.169 316.137 C 45.812 315.538,45.547 314.978,45.556 312.739 C 45.566 310.513,47.110 309.286,49.660 309.478 C 50.085 309.510,50.609 309.391,50.823 309.213 C 51.093 308.989,51.263 309.017,51.378 309.302 C 51.509 309.627,51.610 309.619,51.860 309.260 C 52.106 308.906,52.207 309.012,52.314 309.737 C 52.390 310.250,52.474 309.343,52.500 307.723 C 52.550 304.621,52.553 304.628,51.014 304.695 C 50.783 304.705,50.675 304.633,50.773 304.535 C 50.871 304.437,50.663 304.155,50.311 303.908 C 49.959 303.661,49.747 303.336,49.841 303.185 C 49.934 303.034,49.865 302.820,49.687 302.710 C 48.911 302.231,49.328 299.768,50.328 298.926 C 51.608 297.849,54.992 297.180,55.489 297.906 C 55.644 298.133,55.724 298.107,55.728 297.832 C 55.730 297.602,55.876 297.503,56.051 297.611 C 56.252 297.736,56.369 296.978,56.369 295.560 C 56.369 293.542,56.306 293.312,55.747 293.312 C 53.362 293.312,52.140 290.430,53.238 287.392 C 53.655 286.239,54.063 286.097,57.882 285.772 L 60.191 285.575 60.191 283.552 C 60.191 281.621,60.156 281.529,59.416 281.529 C 58.331 281.529,56.931 280.952,57.152 280.596 C 57.253 280.432,57.190 280.209,57.012 280.099 C 56.834 279.989,56.688 278.969,56.688 277.833 C 56.688 274.725,57.326 274.204,61.132 274.204 L 64.013 274.204 64.013 272.169 L 64.013 270.135 62.942 269.934 C 61.194 269.606,60.748 268.838,60.773 266.200 C 60.802 263.032,61.122 262.749,64.829 262.611 L 67.675 262.505 67.768 260.434 L 67.862 258.363 66.420 258.000 C 64.767 257.583,64.744 257.531,64.512 253.604 C 64.378 251.335,64.429 250.978,64.902 250.854 C 65.201 250.775,50.721 250.694,32.723 250.674 L 0.000 250.637 0.000 284.554 M139.490 250.870 C 139.228 250.969,138.907 251.209,138.779 251.401 C 138.617 251.644,138.543 251.629,138.540 251.354 C 138.537 251.135,138.392 250.955,138.217 250.955 C 137.754 250.955,137.825 252.465,138.296 252.655 C 138.611 252.782,138.609 252.821,138.290 252.841 C 138.021 252.858,137.952 253.131,138.086 253.662 C 138.237 254.264,138.161 254.459,137.773 254.459 C 137.492 254.459,137.261 254.607,137.261 254.788 C 137.261 255.002,137.065 255.014,136.704 254.824 C 135.929 254.417,134.404 254.463,134.352 254.896 C 134.230 255.911,134.131 258.838,134.105 262.182 L 134.076 265.924 133.201 265.934 C 132.219 265.945,131.095 266.650,131.454 267.030 C 131.583 267.165,131.344 267.171,130.923 267.041 C 130.288 266.845,130.193 266.897,130.366 267.346 C 130.480 267.643,130.573 267.955,130.573 268.038 C 130.573 268.122,130.739 268.088,130.941 267.963 C 131.171 267.821,131.222 267.876,131.078 268.109 C 130.951 268.314,130.714 268.399,130.551 268.299 C 130.377 268.191,130.255 269.291,130.255 270.975 L 130.255 273.835 131.290 274.038 C 133.201 274.413,133.683 274.824,133.899 276.261 C 134.142 277.887,133.857 279.889,133.267 280.696 C 132.717 281.449,126.818 281.825,126.380 281.136 C 126.240 280.914,126.121 282.667,126.117 285.032 C 126.110 289.300,126.104 289.334,125.316 289.699 C 124.879 289.902,124.522 289.967,124.522 289.845 C 124.522 289.723,124.112 289.628,123.611 289.635 C 122.761 289.646,122.729 289.692,123.135 290.312 C 123.508 290.881,123.504 290.977,123.105 290.977 C 122.849 290.977,122.707 290.867,122.790 290.733 C 122.873 290.599,122.818 290.414,122.668 290.322 C 122.518 290.229,122.390 290.828,122.384 291.653 C 122.310 301.333,122.315 301.262,121.763 301.051 C 121.366 300.898,121.301 300.960,121.506 301.299 C 121.740 301.688,121.701 301.689,121.230 301.306 C 120.752 300.918,120.617 300.939,120.187 301.465 C 119.755 301.994,119.715 302.000,119.868 301.513 C 119.980 301.159,119.876 300.955,119.586 300.955 C 119.289 300.955,119.200 301.142,119.333 301.488 C 119.488 301.892,119.408 301.972,119.004 301.817 C 118.595 301.660,118.471 301.794,118.471 302.399 C 118.471 302.831,118.615 303.185,118.790 303.185 C 118.965 303.185,119.108 303.336,119.108 303.522 C 119.108 303.707,119.001 303.793,118.869 303.711 C 118.738 303.630,118.631 305.663,118.631 308.229 L 118.631 312.895 117.118 312.855 C 116.286 312.833,115.605 312.950,115.605 313.114 C 115.605 313.279,115.462 313.325,115.287 313.217 C 115.111 313.108,114.958 313.136,114.945 313.277 C 114.932 313.419,114.852 314.646,114.767 316.003 L 114.613 318.471 257.306 318.471 L 400.000 318.471 400.000 285.527 L 400.000 252.583 398.487 252.463 L 396.975 252.344 398.487 252.287 C 400.854 252.197,400.584 251.291,398.169 251.220 L 396.338 251.167 398.248 250.955 C 399.299 250.839,341.616 250.731,270.064 250.716 C 198.511 250.701,139.753 250.770,139.490 250.870 " stroke="none" fill="#f35c54" fill-rule="evenodd"></path><path id="path1" d="M177.212 122.537 C 177.028 122.665,176.852 123.738,176.822 124.920 L 176.768 127.070 178.955 127.070 C 181.431 127.070,181.412 127.090,181.458 124.475 C 181.486 122.947,181.397 122.651,180.873 122.514 C 180.525 122.423,180.253 122.514,180.250 122.721 C 180.247 122.974,180.166 122.965,179.991 122.690 C 179.661 122.169,177.958 122.295,178.161 122.825 C 178.253 123.062,178.131 123.147,177.852 123.040 C 177.599 122.943,177.471 122.735,177.568 122.578 C 177.780 122.235,177.664 122.222,177.212 122.537 M173.369 134.312 C 172.888 134.637,172.821 138.430,173.290 138.720 C 175.712 140.217,178.184 138.636,177.400 136.093 L 176.826 134.236 175.276 134.153 C 174.424 134.107,173.565 134.179,173.369 134.312 M170.486 146.364 C 170.542 146.984,170.422 147.366,170.160 147.399 C 169.932 147.428,169.530 147.476,169.268 147.505 C 169.005 147.535,168.790 147.687,168.790 147.845 C 168.790 148.003,169.112 148.043,169.506 147.935 C 170.203 147.743,170.206 147.752,169.605 148.232 C 169.265 148.504,169.157 148.726,169.366 148.726 C 169.575 148.726,169.745 148.941,169.745 149.204 C 169.745 149.631,171.634 149.901,172.532 149.602 C 172.888 149.483,172.915 145.541,172.560 145.541 C 172.393 145.541,172.357 145.721,172.480 145.939 C 172.660 146.258,172.619 146.258,172.276 145.939 C 171.744 145.446,171.222 145.416,171.519 145.895 C 171.639 146.090,171.540 146.373,171.299 146.523 C 170.989 146.716,170.792 146.588,170.629 146.089 C 170.445 145.528,170.416 145.585,170.486 146.364 M165.601 157.579 C 165.221 157.755,165.109 158.507,165.071 161.146 C 165.044 162.986,165.091 164.170,165.176 163.779 C 165.316 163.132,165.501 163.072,167.226 163.119 C 170.637 163.213,171.646 161.814,170.142 159.076 C 169.245 157.444,167.284 156.797,165.601 157.579 M161.484 169.709 C 161.299 170.056,161.146 171.389,161.146 172.670 L 161.146 175.000 163.217 174.935 C 166.748 174.824,167.734 173.347,166.149 170.541 C 165.269 168.985,162.168 168.431,161.484 169.709 M158.632 181.091 C 158.843 181.345,158.836 181.541,158.612 181.680 C 158.427 181.794,158.190 181.663,158.085 181.390 C 157.655 180.270,157.354 181.019,157.422 183.041 L 157.493 185.191 159.638 185.285 C 161.218 185.355,161.792 185.271,161.817 184.967 C 161.957 183.258,161.326 180.573,160.785 180.573 C 160.613 180.573,160.561 180.717,160.669 180.892 C 160.777 181.067,160.722 181.210,160.547 181.210 C 160.372 181.210,160.141 181.069,160.035 180.897 C 159.928 180.724,159.498 180.611,159.078 180.646 C 158.525 180.692,158.402 180.814,158.632 181.091 M66.955 253.105 C 67.041 254.463,67.305 256.168,67.541 256.894 L 67.969 258.216 69.668 258.200 C 70.893 258.189,71.438 258.043,71.626 257.675 C 71.990 256.960,71.991 251.640,71.627 251.415 C 71.462 251.313,71.410 251.096,71.510 250.933 C 71.617 250.760,70.675 250.637,69.245 250.637 L 66.797 250.637 66.955 253.105 M65.143 264.275 C 61.561 264.567,61.849 270.064,65.446 270.064 C 67.785 270.064,67.834 270.001,67.834 267.041 C 67.834 264.085,67.808 264.057,65.143 264.275 M126.342 274.124 C 126.271 274.256,126.195 275.868,126.174 277.707 C 126.153 279.546,126.215 280.872,126.311 280.653 C 126.424 280.395,127.191 280.255,128.480 280.255 C 132.347 280.255,133.628 277.259,130.920 274.550 C 130.248 273.878,126.655 273.544,126.342 274.124 M61.671 275.791 C 57.151 276.221,57.381 281.681,61.909 281.463 L 63.854 281.369 63.947 278.692 C 64.057 275.543,64.072 275.562,61.671 275.791 M59.559 287.765 C 59.556 287.983,58.985 288.060,58.001 287.975 C 55.293 287.739,54.588 289.127,55.864 292.181 C 56.372 293.395,58.869 293.870,59.809 292.930 C 60.268 292.471,60.317 288.586,59.873 287.898 C 59.703 287.635,59.562 287.576,59.559 287.765 " stroke="none" fill="#bc4c48" fill-rule="evenodd"></path><path id="path2" d="M219.542 2.866 C 219.542 4.530,219.595 5.211,219.661 4.379 C 219.726 3.547,219.726 2.186,219.661 1.354 C 219.595 0.521,219.542 1.202,219.542 2.866 M216.083 6.051 C 216.191 6.226,216.495 6.369,216.757 6.369 C 217.020 6.369,217.146 6.226,217.038 6.051 C 216.930 5.876,216.626 5.732,216.364 5.732 C 216.101 5.732,215.975 5.876,216.083 6.051 M213.854 17.672 C 213.678 17.731,213.121 17.871,212.614 17.983 L 211.693 18.188 211.899 20.624 C 212.102 23.021,212.339 23.624,213.134 23.753 C 213.354 23.789,213.678 23.850,213.854 23.890 C 216.306 24.438,218.094 22.856,217.879 20.330 C 217.758 18.897,215.215 17.218,213.854 17.672 M209.508 29.206 C 207.897 29.453,207.664 30.083,207.882 33.601 C 208.011 35.695,208.156 36.511,208.307 35.987 C 208.432 35.549,208.550 35.414,208.567 35.687 C 208.670 37.294,213.806 35.834,214.455 34.013 C 214.789 33.075,214.434 30.790,213.997 31.061 C 213.830 31.164,213.694 31.086,213.694 30.888 C 213.694 30.182,211.848 28.949,210.912 29.029 C 210.603 29.055,209.971 29.135,209.508 29.206 M203.983 41.079 C 203.878 41.249,203.950 41.683,204.143 42.044 C 204.336 42.404,204.399 42.998,204.283 43.364 C 204.125 43.861,204.181 43.973,204.504 43.806 C 204.742 43.684,204.686 43.789,204.379 44.040 C 203.800 44.515,203.579 46.047,204.140 45.701 C 204.315 45.592,204.459 45.775,204.459 46.106 C 204.459 46.438,204.674 46.709,204.936 46.709 C 205.199 46.709,205.416 46.482,205.419 46.205 C 205.423 45.763,205.462 45.760,205.732 46.178 C 205.995 46.585,206.042 46.587,206.046 46.194 C 206.050 45.835,206.136 45.817,206.433 46.115 C 207.047 46.728,208.112 46.558,208.900 45.719 L 209.631 44.941 209.052 43.330 C 208.734 42.444,208.358 41.720,208.217 41.720 C 208.077 41.720,207.998 41.560,208.041 41.365 C 208.163 40.825,206.779 40.706,206.574 41.238 C 206.420 41.640,206.254 41.639,205.286 41.234 C 204.600 40.948,204.101 40.888,203.983 41.079 M205.732 42.166 C 205.732 42.196,205.456 42.220,205.119 42.220 C 204.781 42.220,204.575 42.108,204.660 41.970 C 204.745 41.832,204.663 41.720,204.477 41.720 C 204.292 41.720,204.140 41.573,204.140 41.394 C 204.140 41.215,204.498 41.303,204.936 41.590 C 205.374 41.877,205.732 42.136,205.732 42.166 M201.664 53.124 C 201.934 53.457,201.944 53.550,201.694 53.400 C 201.487 53.276,201.226 53.322,201.115 53.503 C 201.003 53.684,200.742 53.731,200.535 53.606 C 200.269 53.447,200.274 53.522,200.552 53.866 C 200.866 54.255,200.852 54.474,200.482 54.962 C 200.121 55.440,200.033 56.579,200.078 60.191 C 200.134 64.618,200.140 64.660,200.238 61.226 C 200.295 59.201,200.473 57.643,200.647 57.643 C 200.817 57.643,200.955 57.771,200.955 57.926 C 200.955 58.303,202.007 58.207,202.304 57.803 C 202.449 57.605,202.540 57.634,202.543 57.879 C 202.550 58.423,203.959 58.260,204.813 57.616 C 205.582 57.036,205.910 55.096,205.239 55.096 C 205.024 55.096,204.753 54.590,204.637 53.972 C 204.521 53.354,204.290 52.933,204.124 53.035 C 203.958 53.138,203.822 53.080,203.822 52.905 C 203.822 52.730,203.245 52.596,202.540 52.605 C 201.415 52.621,201.308 52.684,201.664 53.124 M180.952 122.509 C 181.383 122.623,181.484 123.012,181.459 124.462 C 181.412 127.092,181.433 127.070,178.947 127.070 L 176.752 127.070 176.752 127.986 C 176.752 129.557,177.496 129.819,181.474 129.649 C 183.237 129.574,184.115 127.991,184.050 125.008 L 183.990 122.293 182.202 122.330 C 181.219 122.350,180.656 122.431,180.952 122.509 M177.280 135.748 C 177.552 136.668,177.836 137.523,177.911 137.648 C 178.504 138.628,174.606 139.533,173.292 138.721 C 172.889 138.472,172.822 139.190,173.113 140.645 L 173.295 141.561 176.007 141.401 C 180.333 141.147,181.922 137.994,179.130 135.202 C 177.354 133.426,176.655 133.633,177.280 135.748 M169.741 146.171 C 170.002 146.659,169.984 146.765,169.662 146.641 C 169.410 146.544,169.226 146.737,169.196 147.127 C 169.157 147.655,169.252 147.716,169.723 147.464 C 170.040 147.295,170.364 147.222,170.444 147.302 C 170.524 147.382,170.527 147.019,170.450 146.494 C 170.370 145.949,170.116 145.541,169.857 145.541 C 169.505 145.541,169.479 145.681,169.741 146.171 M170.701 146.328 C 170.701 146.612,170.887 146.724,171.178 146.612 C 171.441 146.511,171.656 146.301,171.656 146.144 C 171.656 145.988,171.441 145.860,171.178 145.860 C 170.916 145.860,170.701 146.070,170.701 146.328 M172.568 146.262 C 172.908 146.602,173.091 149.414,172.793 149.712 C 172.439 150.067,169.745 149.589,169.745 149.172 C 169.745 148.927,169.575 148.726,169.366 148.726 C 169.157 148.726,169.265 148.499,169.605 148.222 C 170.170 147.761,170.173 147.734,169.640 147.904 C 169.319 148.006,168.996 148.089,168.923 148.089 C 168.542 148.089,168.818 157.270,169.208 157.594 C 172.144 160.031,170.965 163.223,167.168 163.118 L 165.287 163.066 165.287 164.049 L 165.287 165.032 168.144 164.920 C 172.225 164.761,173.667 162.698,172.182 159.142 C 171.679 157.940,171.559 157.850,169.984 157.505 C 169.142 157.320,169.108 157.236,169.113 155.328 C 169.120 152.746,169.163 152.707,172.029 152.707 C 175.252 152.707,176.115 152.026,176.115 149.485 C 176.115 147.322,175.235 146.181,173.439 146.014 C 172.517 145.929,172.297 145.991,172.568 146.262 M166.097 170.462 C 167.729 173.316,166.764 174.853,163.281 174.947 L 161.306 175.000 161.326 178.185 C 161.337 179.936,161.494 182.114,161.674 183.024 C 162.117 185.261,161.952 185.429,159.437 185.300 L 157.324 185.191 157.329 186.783 C 157.332 187.659,157.444 188.204,157.577 187.995 C 157.710 187.785,157.980 187.713,158.176 187.835 C 159.204 188.474,162.737 187.851,163.732 186.856 C 165.529 185.059,164.379 180.892,162.086 180.892 C 161.530 180.892,161.465 180.660,161.465 178.662 L 161.465 176.433 163.654 176.433 C 166.986 176.433,167.718 176.206,168.293 174.996 C 169.293 172.888,168.633 170.033,167.002 169.413 C 165.443 168.820,165.272 169.019,166.097 170.462 M157.954 181.195 C 158.151 181.563,158.448 181.781,158.615 181.678 C 159.054 181.406,158.995 181.274,158.256 180.879 C 157.650 180.554,157.625 180.580,157.954 181.195 M157.399 189.490 C 157.399 190.104,157.464 190.354,157.544 190.048 C 157.624 189.741,157.624 189.240,157.544 188.933 C 157.464 188.627,157.399 188.877,157.399 189.490 M65.207 250.856 C 63.327 251.348,64.879 257.650,67.005 258.154 C 68.023 258.395,68.009 258.562,67.227 255.573 C 67.044 254.873,66.891 253.475,66.887 252.468 C 66.879 250.547,66.774 250.447,65.207 250.856 M64.051 262.676 C 61.349 262.803,60.853 263.362,60.839 266.299 C 60.827 268.572,61.157 269.204,62.650 269.772 C 63.933 270.260,64.092 270.109,63.436 269.029 C 61.662 266.107,62.578 264.337,65.887 264.290 C 67.773 264.264,67.834 264.236,67.834 263.421 C 67.833 262.489,67.865 262.495,64.051 262.676 M130.773 266.176 C 130.688 266.315,130.894 266.449,131.232 266.475 C 131.570 266.500,131.847 266.387,131.847 266.222 C 131.847 265.860,130.992 265.823,130.773 266.176 M130.920 274.550 C 133.638 277.269,132.348 280.255,128.454 280.255 C 126.688 280.255,126.433 280.330,126.433 280.854 C 126.433 281.380,126.654 281.442,128.264 281.365 C 129.271 281.317,130.688 281.263,131.412 281.244 C 134.484 281.165,134.900 275.046,131.890 274.210 C 130.269 273.760,130.166 273.796,130.920 274.550 M57.632 275.122 C 56.292 276.461,56.488 281.077,57.890 281.236 C 58.017 281.251,58.537 281.330,59.045 281.413 L 59.969 281.563 59.396 280.689 C 57.298 277.488,59.441 275.074,63.774 275.758 C 63.905 275.779,64.013 275.456,64.013 275.041 C 64.013 273.734,58.956 273.798,57.632 275.122 M57.484 285.985 C 53.936 286.298,53.665 286.422,53.210 287.939 C 52.460 290.441,53.384 292.724,55.312 293.136 L 56.324 293.353 55.710 291.737 C 54.644 288.931,55.366 287.745,58.001 287.975 C 58.985 288.060,59.556 287.983,59.559 287.765 C 59.562 287.576,59.703 287.635,59.873 287.898 C 60.099 288.248,60.183 288.014,60.186 287.022 C 60.189 286.278,60.155 285.689,60.111 285.715 C 60.068 285.740,58.885 285.861,57.484 285.985 M54.777 298.089 C 54.777 298.177,54.195 298.271,53.484 298.298 C 50.665 298.407,48.899 300.155,49.838 301.907 C 50.071 302.343,50.195 302.808,50.112 302.942 C 50.030 303.075,50.114 303.185,50.300 303.185 C 50.485 303.185,50.637 303.395,50.637 303.651 C 50.637 304.435,51.826 304.813,54.082 304.747 L 56.234 304.684 56.318 301.260 L 56.402 297.836 55.590 297.883 C 55.143 297.909,54.777 298.002,54.777 298.089 M118.595 308.758 C 118.596 311.035,118.646 311.925,118.708 310.735 C 118.769 309.546,118.769 307.682,118.707 306.595 C 118.645 305.508,118.595 306.481,118.595 308.758 M48.661 309.810 C 45.216 310.032,44.464 314.895,47.674 316.193 C 48.721 316.617,52.186 316.570,52.458 316.129 C 52.569 315.950,52.473 315.932,52.224 316.086 C 51.904 316.284,51.865 316.200,52.061 315.737 C 52.396 314.949,52.524 312.611,52.321 310.978 C 52.145 309.561,52.210 309.581,48.661 309.810 " stroke="none" fill="#e4544c" fill-rule="evenodd"></path><path id="path3" d="M216.717 6.890 C 217.139 7.312,217.310 7.333,217.616 7.003 C 217.904 6.692,217.904 6.645,217.618 6.806 C 217.411 6.922,217.151 6.871,217.041 6.693 C 216.931 6.515,216.696 6.369,216.519 6.369 C 216.342 6.369,216.431 6.604,216.717 6.890 M218.949 8.206 C 218.641 8.432,218.476 8.869,218.319 9.873 C 218.278 10.135,218.306 10.171,218.381 9.952 C 218.456 9.733,218.675 9.554,218.866 9.554 C 219.058 9.554,219.124 9.464,219.013 9.353 C 218.903 9.242,218.956 8.884,219.131 8.557 C 219.476 7.912,219.441 7.844,218.949 8.206 M216.922 10.271 C 216.959 11.147,216.988 11.184,217.114 10.510 C 217.195 10.072,217.426 9.608,217.628 9.479 C 217.863 9.329,217.794 9.244,217.436 9.241 C 217.010 9.237,216.889 9.479,216.922 10.271 M216.838 18.047 C 216.383 18.168,216.403 18.279,216.990 18.939 C 217.360 19.353,217.773 19.624,217.910 19.539 C 218.046 19.455,217.940 19.169,217.675 18.903 C 217.409 18.637,217.273 18.288,217.373 18.127 C 217.472 17.966,217.509 17.851,217.455 17.871 C 217.401 17.892,217.123 17.970,216.838 18.047 M218.129 20.761 C 218.116 20.816,218.040 21.217,217.960 21.654 C 217.759 22.753,216.345 23.885,215.173 23.885 C 214.464 23.885,214.299 23.980,214.557 24.238 C 215.001 24.683,216.894 24.112,217.614 23.315 C 218.335 22.519,218.828 21.081,218.459 20.852 C 218.291 20.748,218.142 20.707,218.129 20.761 M212.107 24.105 C 212.110 24.717,212.197 24.866,212.381 24.575 C 212.714 24.051,213.072 24.031,213.375 24.522 C 213.538 24.785,213.662 24.746,213.799 24.390 C 213.906 24.112,213.854 23.867,213.684 23.846 C 213.056 23.764,212.889 23.711,212.500 23.464 C 212.216 23.283,212.103 23.467,212.107 24.105 M213.694 30.732 C 213.694 30.995,213.873 31.174,214.092 31.131 C 214.311 31.087,214.451 31.241,214.403 31.473 C 214.355 31.705,214.459 31.806,214.635 31.697 C 214.843 31.568,214.819 31.281,214.567 30.877 C 214.104 30.136,213.694 30.068,213.694 30.732 M144.586 31.210 C 144.849 31.380,144.928 31.521,144.761 31.524 C 144.595 31.526,144.619 31.689,144.816 31.886 C 145.012 32.082,145.099 32.477,145.009 32.762 C 144.868 33.207,144.892 33.213,145.180 32.805 C 145.373 32.532,145.396 32.211,145.235 32.050 C 145.080 31.896,145.030 31.572,145.123 31.331 C 145.229 31.054,145.072 30.894,144.700 30.897 C 144.201 30.901,144.183 30.950,144.586 31.210 M143.232 31.768 C 142.806 32.245,142.799 32.383,143.183 32.735 C 143.552 33.075,143.631 33.055,143.631 32.622 C 143.631 32.261,143.804 32.158,144.188 32.292 C 144.716 32.475,144.716 32.463,144.193 32.055 C 143.889 31.819,143.734 31.532,143.848 31.418 C 143.962 31.304,143.982 31.210,143.892 31.210 C 143.803 31.210,143.506 31.461,143.232 31.768 M214.241 34.489 C 214.127 34.785,213.564 35.315,212.988 35.666 C 212.398 36.026,212.164 36.304,212.450 36.305 C 213.169 36.306,214.755 34.869,214.588 34.368 C 214.487 34.067,214.390 34.101,214.241 34.489 M208.732 36.419 C 208.640 36.656,208.617 37.767,208.680 38.887 L 208.794 40.924 208.856 38.596 C 208.894 37.139,209.036 36.342,209.236 36.465 C 209.411 36.573,209.554 36.510,209.554 36.325 C 209.554 35.837,208.927 35.909,208.732 36.419 M209.184 42.833 C 208.791 43.226,209.309 44.307,209.800 44.119 C 210.212 43.961,210.219 44.016,209.853 44.499 C 208.322 46.520,207.314 46.995,206.433 46.115 C 206.136 45.817,206.052 45.941,206.056 46.672 C 206.060 47.396,206.132 47.502,206.369 47.134 C 206.539 46.871,206.680 46.804,206.683 46.985 C 206.686 47.165,207.043 47.343,207.478 47.379 C 209.120 47.515,211.181 44.468,209.976 43.684 C 209.797 43.567,209.589 43.283,209.516 43.053 C 209.442 42.823,209.293 42.724,209.184 42.833 M140.900 43.852 C 140.946 44.168,141.090 44.403,141.219 44.374 C 141.703 44.264,141.721 44.028,141.275 43.658 C 140.901 43.348,140.831 43.384,140.900 43.852 M205.451 46.258 C 205.431 46.564,205.243 46.779,205.035 46.736 C 204.529 46.629,204.307 47.747,204.747 48.187 C 204.999 48.439,205.096 48.349,205.096 47.861 C 205.096 47.490,205.255 47.134,205.450 47.069 C 205.646 47.004,205.734 46.669,205.647 46.325 C 205.514 45.805,205.482 45.794,205.451 46.258 M200.796 53.110 C 200.621 53.239,200.447 53.757,200.409 54.262 C 200.342 55.152,200.619 55.271,200.749 54.408 C 200.862 53.662,201.306 53.167,201.664 53.388 C 201.870 53.515,201.918 53.453,201.782 53.234 C 201.521 52.812,201.249 52.777,200.796 53.110 M204.777 54.299 C 204.777 55.087,205.209 55.367,205.556 54.804 C 205.655 54.644,205.556 54.440,205.336 54.352 C 205.026 54.227,205.030 54.185,205.353 54.165 C 205.582 54.151,205.682 53.997,205.573 53.822 C 205.211 53.235,204.777 53.495,204.777 54.299 M205.572 56.047 C 205.788 56.729,204.309 58.422,203.782 58.096 C 203.628 58.002,203.503 58.148,203.503 58.421 C 203.503 58.989,203.794 59.035,204.836 58.632 C 205.765 58.273,206.853 56.509,206.340 56.192 C 206.087 56.036,206.109 55.891,206.415 55.698 C 206.728 55.499,206.644 55.422,206.109 55.419 C 205.517 55.415,205.411 55.539,205.572 56.047 M202.229 57.929 C 202.229 58.111,201.989 58.168,201.696 58.056 C 201.285 57.898,201.212 57.979,201.378 58.410 C 201.496 58.718,201.601 59.137,201.613 59.341 C 201.624 59.546,201.777 59.355,201.953 58.917 C 202.264 58.143,202.286 58.138,202.729 58.739 C 202.982 59.082,203.185 59.178,203.185 58.955 C 203.185 58.734,202.970 58.338,202.707 58.076 C 202.444 57.813,202.229 57.747,202.229 57.929 M397.378 67.747 C 397.951 67.818,398.811 67.816,399.289 67.743 C 399.768 67.671,399.299 67.613,398.248 67.615 C 397.197 67.616,396.806 67.676,397.378 67.747 M397.378 122.842 C 397.951 122.913,398.811 122.912,399.289 122.839 C 399.768 122.766,399.299 122.708,398.248 122.710 C 397.197 122.712,396.806 122.771,397.378 122.842 M397.532 123.477 C 398.014 123.549,398.802 123.549,399.283 123.477 C 399.765 123.404,399.371 123.344,398.408 123.344 C 397.444 123.344,397.050 123.404,397.532 123.477 M179.240 140.516 C 178.770 141.003,178.494 141.401,178.627 141.401 C 178.929 141.401,180.413 139.845,180.229 139.721 C 180.156 139.671,179.711 140.028,179.240 140.516 M175.388 146.949 C 176.010 147.782,176.236 147.821,175.938 147.045 C 175.833 146.770,175.538 146.466,175.284 146.368 C 174.935 146.234,174.960 146.378,175.388 146.949 M105.671 148.624 C 105.351 148.708,105.204 148.957,105.310 149.233 C 105.460 149.624,105.561 149.608,105.930 149.134 C 106.344 148.601,106.359 148.605,106.181 149.204 C 106.026 149.723,106.055 149.752,106.335 149.363 C 106.524 149.100,106.680 148.778,106.683 148.646 C 106.688 148.395,106.549 148.392,105.671 148.624 M175.318 151.911 C 175.001 152.261,174.903 152.548,175.099 152.548 C 175.295 152.548,175.609 152.261,175.796 151.911 C 175.984 151.561,176.083 151.274,176.016 151.274 C 175.949 151.274,175.636 151.561,175.318 151.911 M102.211 158.564 C 102.384 158.887,102.495 159.207,102.457 159.273 C 102.419 159.340,102.452 159.355,102.530 159.306 C 102.882 159.086,102.760 158.308,102.350 158.150 C 101.996 158.015,101.965 158.106,102.211 158.564 M101.441 159.860 C 101.323 160.051,101.410 160.167,101.634 160.119 C 101.858 160.071,102.048 160.211,102.056 160.430 C 102.064 160.649,102.189 160.840,102.335 160.855 C 102.880 160.909,102.852 160.595,102.263 160.062 C 101.855 159.693,101.585 159.627,101.441 159.860 M167.710 169.730 C 167.905 170.001,168.223 170.510,168.417 170.860 C 168.611 171.210,168.775 171.326,168.780 171.116 C 168.785 170.907,168.467 170.399,168.073 169.986 C 167.679 169.574,167.516 169.458,167.710 169.730 M94.096 183.777 C 93.991 183.947,93.749 183.991,93.559 183.873 C 93.360 183.750,93.305 183.807,93.429 184.008 C 93.547 184.199,93.947 184.297,94.317 184.226 C 95.213 184.054,95.353 183.876,94.769 183.652 C 94.504 183.550,94.202 183.607,94.096 183.777 M163.549 187.004 C 162.806 187.783,162.754 187.912,163.303 187.619 C 163.685 187.414,164.150 186.963,164.335 186.617 C 164.785 185.777,164.663 185.837,163.549 187.004 M160.589 188.118 C 160.896 188.198,161.397 188.198,161.704 188.118 C 162.010 188.038,161.760 187.972,161.146 187.972 C 160.533 187.972,160.283 188.038,160.589 188.118 M397.378 190.995 C 397.951 191.066,398.811 191.065,399.289 190.992 C 399.768 190.919,399.299 190.861,398.248 190.863 C 397.197 190.865,396.806 190.924,397.378 190.995 M397.378 191.951 C 397.951 192.021,398.811 192.020,399.289 191.947 C 399.768 191.875,399.299 191.817,398.248 191.818 C 397.197 191.820,396.806 191.880,397.378 191.951 M397.378 251.186 C 397.951 251.257,398.811 251.256,399.289 251.183 C 399.768 251.110,399.299 251.052,398.248 251.054 C 397.197 251.056,396.806 251.115,397.378 251.186 M397.855 252.458 C 398.339 252.531,399.055 252.529,399.447 252.453 C 399.839 252.378,399.443 252.318,398.567 252.320 C 397.691 252.323,397.371 252.385,397.855 252.458 M64.650 256.665 C 64.650 256.965,65.530 257.962,65.794 257.962 C 65.874 257.962,65.703 257.604,65.417 257.166 C 64.864 256.322,64.650 256.182,64.650 256.665 M57.727 285.897 C 58.211 285.971,58.928 285.969,59.320 285.893 C 59.711 285.817,59.315 285.757,58.439 285.760 C 57.564 285.762,57.243 285.824,57.727 285.897 M52.425 297.936 C 50.719 298.369,49.360 299.490,49.370 300.454 C 49.376 300.962,49.539 300.836,50.076 299.909 C 50.810 298.643,51.366 298.380,53.484 298.298 C 54.195 298.271,54.777 298.093,54.777 297.903 C 54.777 297.461,54.267 297.468,52.425 297.936 M49.374 301.812 C 49.368 302.196,49.516 302.605,49.703 302.720 C 50.252 303.060,50.297 302.762,49.826 301.910 C 49.401 301.143,49.385 301.140,49.374 301.812 M49.682 303.305 C 49.682 303.371,49.896 303.604,50.159 303.822 C 50.550 304.146,50.637 304.125,50.637 303.701 C 50.637 303.417,50.422 303.185,50.159 303.185 C 49.896 303.185,49.682 303.239,49.682 303.305 M50.637 309.395 C 50.312 309.786,50.334 309.873,50.757 309.873 C 51.041 309.873,51.274 309.658,51.274 309.395 C 51.274 309.132,51.220 308.917,51.154 308.917 C 51.088 308.917,50.855 309.132,50.637 309.395 M48.248 309.575 C 47.763 309.768,47.908 309.833,48.859 309.850 C 49.545 309.863,50.006 309.773,49.885 309.651 C 49.553 309.320,48.962 309.292,48.248 309.575 M46.067 310.701 C 45.245 311.829,45.541 311.896,46.441 310.786 C 46.849 310.284,47.064 309.877,46.919 309.883 C 46.774 309.888,46.391 310.256,46.067 310.701 M45.705 314.471 C 45.814 314.985,46.143 315.590,46.438 315.814 C 47.131 316.341,47.735 316.369,47.070 315.844 C 46.792 315.625,46.327 315.016,46.037 314.490 L 45.508 313.535 45.705 314.471 " stroke="none" fill="#f0604c" fill-rule="evenodd"></path><path id="path4" d="M216.717 6.890 C 217.139 7.312,217.310 7.333,217.616 7.003 C 217.904 6.692,217.904 6.645,217.618 6.806 C 217.411 6.922,217.151 6.871,217.041 6.693 C 216.931 6.515,216.696 6.369,216.519 6.369 C 216.342 6.369,216.431 6.604,216.717 6.890 M218.949 8.206 C 218.641 8.432,218.476 8.869,218.319 9.873 C 218.278 10.135,218.306 10.171,218.381 9.952 C 218.456 9.733,218.675 9.554,218.866 9.554 C 219.058 9.554,219.124 9.464,219.013 9.353 C 218.903 9.242,218.956 8.884,219.131 8.557 C 219.476 7.912,219.441 7.844,218.949 8.206 M216.922 10.271 C 216.959 11.147,216.988 11.184,217.114 10.510 C 217.195 10.072,217.426 9.608,217.628 9.479 C 217.863 9.329,217.794 9.244,217.436 9.241 C 217.010 9.237,216.889 9.479,216.922 10.271 M216.838 18.047 C 216.383 18.168,216.403 18.279,216.990 18.939 C 217.360 19.353,217.773 19.624,217.910 19.539 C 218.046 19.455,217.940 19.169,217.675 18.903 C 217.409 18.637,217.273 18.288,217.373 18.127 C 217.472 17.966,217.509 17.851,217.455 17.871 C 217.401 17.892,217.123 17.970,216.838 18.047 M218.129 20.761 C 218.116 20.816,218.040 21.217,217.960 21.654 C 217.759 22.753,216.345 23.885,215.173 23.885 C 214.464 23.885,214.299 23.980,214.557 24.238 C 215.001 24.683,216.894 24.112,217.614 23.315 C 218.335 22.519,218.828 21.081,218.459 20.852 C 218.291 20.748,218.142 20.707,218.129 20.761 M212.107 24.105 C 212.110 24.717,212.197 24.866,212.381 24.575 C 212.714 24.051,213.072 24.031,213.375 24.522 C 213.538 24.785,213.662 24.746,213.799 24.390 C 213.906 24.112,213.854 23.867,213.684 23.846 C 213.056 23.764,212.889 23.711,212.500 23.464 C 212.216 23.283,212.103 23.467,212.107 24.105 M213.694 30.732 C 213.694 30.995,213.873 31.174,214.092 31.131 C 214.311 31.087,214.451 31.241,214.403 31.473 C 214.355 31.705,214.459 31.806,214.635 31.697 C 214.843 31.568,214.819 31.281,214.567 30.877 C 214.104 30.136,213.694 30.068,213.694 30.732 M144.586 31.210 C 144.849 31.380,144.928 31.521,144.761 31.524 C 144.595 31.526,144.619 31.689,144.816 31.886 C 145.012 32.082,145.099 32.477,145.009 32.762 C 144.868 33.207,144.892 33.213,145.180 32.805 C 145.373 32.532,145.396 32.211,145.235 32.050 C 145.080 31.896,145.030 31.572,145.123 31.331 C 145.229 31.054,145.072 30.894,144.700 30.897 C 144.201 30.901,144.183 30.950,144.586 31.210 M143.232 31.768 C 142.806 32.245,142.799 32.383,143.183 32.735 C 143.552 33.075,143.631 33.055,143.631 32.622 C 143.631 32.261,143.804 32.158,144.188 32.292 C 144.716 32.475,144.716 32.463,144.193 32.055 C 143.889 31.819,143.734 31.532,143.848 31.418 C 143.962 31.304,143.982 31.210,143.892 31.210 C 143.803 31.210,143.506 31.461,143.232 31.768 M214.241 34.489 C 214.127 34.785,213.564 35.315,212.988 35.666 C 212.398 36.026,212.164 36.304,212.450 36.305 C 213.169 36.306,214.755 34.869,214.588 34.368 C 214.487 34.067,214.390 34.101,214.241 34.489 M208.732 36.419 C 208.640 36.656,208.617 37.767,208.680 38.887 L 208.794 40.924 208.856 38.596 C 208.894 37.139,209.036 36.342,209.236 36.465 C 209.411 36.573,209.554 36.510,209.554 36.325 C 209.554 35.837,208.927 35.909,208.732 36.419 M209.184 42.833 C 208.791 43.226,209.309 44.307,209.800 44.119 C 210.212 43.961,210.219 44.016,209.853 44.499 C 208.322 46.520,207.314 46.995,206.433 46.115 C 206.136 45.817,206.052 45.941,206.056 46.672 C 206.060 47.396,206.132 47.502,206.369 47.134 C 206.539 46.871,206.680 46.804,206.683 46.985 C 206.686 47.165,207.043 47.343,207.478 47.379 C 209.120 47.515,211.181 44.468,209.976 43.684 C 209.797 43.567,209.589 43.283,209.516 43.053 C 209.442 42.823,209.293 42.724,209.184 42.833 M140.900 43.852 C 140.946 44.168,141.090 44.403,141.219 44.374 C 141.703 44.264,141.721 44.028,141.275 43.658 C 140.901 43.348,140.831 43.384,140.900 43.852 M205.451 46.258 C 205.431 46.564,205.243 46.779,205.035 46.736 C 204.529 46.629,204.307 47.747,204.747 48.187 C 204.999 48.439,205.096 48.349,205.096 47.861 C 205.096 47.490,205.255 47.134,205.450 47.069 C 205.646 47.004,205.734 46.669,205.647 46.325 C 205.514 45.805,205.482 45.794,205.451 46.258 M200.796 53.110 C 200.621 53.239,200.447 53.757,200.409 54.262 C 200.342 55.152,200.619 55.271,200.749 54.408 C 200.862 53.662,201.306 53.167,201.664 53.388 C 201.870 53.515,201.918 53.453,201.782 53.234 C 201.521 52.812,201.249 52.777,200.796 53.110 M204.777 54.299 C 204.777 55.087,205.209 55.367,205.556 54.804 C 205.655 54.644,205.556 54.440,205.336 54.352 C 205.026 54.227,205.030 54.185,205.353 54.165 C 205.582 54.151,205.682 53.997,205.573 53.822 C 205.211 53.235,204.777 53.495,204.777 54.299 M205.572 56.047 C 205.788 56.729,204.309 58.422,203.782 58.096 C 203.628 58.002,203.503 58.148,203.503 58.421 C 203.503 58.989,203.794 59.035,204.836 58.632 C 205.765 58.273,206.853 56.509,206.340 56.192 C 206.087 56.036,206.109 55.891,206.415 55.698 C 206.728 55.499,206.644 55.422,206.109 55.419 C 205.517 55.415,205.411 55.539,205.572 56.047 M202.229 57.929 C 202.229 58.111,201.989 58.168,201.696 58.056 C 201.285 57.898,201.212 57.979,201.378 58.410 C 201.496 58.718,201.601 59.137,201.613 59.341 C 201.624 59.546,201.777 59.355,201.953 58.917 C 202.264 58.143,202.286 58.138,202.729 58.739 C 202.982 59.082,203.185 59.178,203.185 58.955 C 203.185 58.734,202.970 58.338,202.707 58.076 C 202.444 57.813,202.229 57.747,202.229 57.929 M397.378 67.747 C 397.951 67.818,398.811 67.816,399.289 67.743 C 399.768 67.671,399.299 67.613,398.248 67.615 C 397.197 67.616,396.806 67.676,397.378 67.747 M397.378 122.842 C 397.951 122.913,398.811 122.912,399.289 122.839 C 399.768 122.766,399.299 122.708,398.248 122.710 C 397.197 122.712,396.806 122.771,397.378 122.842 M397.532 123.477 C 398.014 123.549,398.802 123.549,399.283 123.477 C 399.765 123.404,399.371 123.344,398.408 123.344 C 397.444 123.344,397.050 123.404,397.532 123.477 M179.240 140.516 C 178.770 141.003,178.494 141.401,178.627 141.401 C 178.929 141.401,180.413 139.845,180.229 139.721 C 180.156 139.671,179.711 140.028,179.240 140.516 M175.388 146.949 C 176.010 147.782,176.236 147.821,175.938 147.045 C 175.833 146.770,175.538 146.466,175.284 146.368 C 174.935 146.234,174.960 146.378,175.388 146.949 M105.671 148.624 C 105.351 148.708,105.204 148.957,105.310 149.233 C 105.460 149.624,105.561 149.608,105.930 149.134 C 106.344 148.601,106.359 148.605,106.181 149.204 C 106.026 149.723,106.055 149.752,106.335 149.363 C 106.524 149.100,106.680 148.778,106.683 148.646 C 106.688 148.395,106.549 148.392,105.671 148.624 M175.318 151.911 C 175.001 152.261,174.903 152.548,175.099 152.548 C 175.295 152.548,175.609 152.261,175.796 151.911 C 175.984 151.561,176.083 151.274,176.016 151.274 C 175.949 151.274,175.636 151.561,175.318 151.911 M102.211 158.564 C 102.384 158.887,102.495 159.207,102.457 159.273 C 102.419 159.340,102.452 159.355,102.530 159.306 C 102.882 159.086,102.760 158.308,102.350 158.150 C 101.996 158.015,101.965 158.106,102.211 158.564 M101.441 159.860 C 101.323 160.051,101.410 160.167,101.634 160.119 C 101.858 160.071,102.048 160.211,102.056 160.430 C 102.064 160.649,102.189 160.840,102.335 160.855 C 102.880 160.909,102.852 160.595,102.263 160.062 C 101.855 159.693,101.585 159.627,101.441 159.860 M167.710 169.730 C 167.905 170.001,168.223 170.510,168.417 170.860 C 168.611 171.210,168.775 171.326,168.780 171.116 C 168.785 170.907,168.467 170.399,168.073 169.986 C 167.679 169.574,167.516 169.458,167.710 169.730 M94.096 183.777 C 93.991 183.947,93.749 183.991,93.559 183.873 C 93.360 183.750,93.305 183.807,93.429 184.008 C 93.547 184.199,93.947 184.297,94.317 184.226 C 95.213 184.054,95.353 183.876,94.769 183.652 C 94.504 183.550,94.202 183.607,94.096 183.777 M163.549 187.004 C 162.806 187.783,162.754 187.912,163.303 187.619 C 163.685 187.414,164.150 186.963,164.335 186.617 C 164.785 185.777,164.663 185.837,163.549 187.004 M160.589 188.118 C 160.896 188.198,161.397 188.198,161.704 188.118 C 162.010 188.038,161.760 187.972,161.146 187.972 C 160.533 187.972,160.283 188.038,160.589 188.118 M397.378 190.995 C 397.951 191.066,398.811 191.065,399.289 190.992 C 399.768 190.919,399.299 190.861,398.248 190.863 C 397.197 190.865,396.806 190.924,397.378 190.995 M397.378 191.951 C 397.951 192.021,398.811 192.020,399.289 191.947 C 399.768 191.875,399.299 191.817,398.248 191.818 C 397.197 191.820,396.806 191.880,397.378 191.951 M397.378 251.186 C 397.951 251.257,398.811 251.256,399.289 251.183 C 399.768 251.110,399.299 251.052,398.248 251.054 C 397.197 251.056,396.806 251.115,397.378 251.186 M397.855 252.458 C 398.339 252.531,399.055 252.529,399.447 252.453 C 399.839 252.378,399.443 252.318,398.567 252.320 C 397.691 252.323,397.371 252.385,397.855 252.458 M64.650 256.665 C 64.650 256.965,65.530 257.962,65.794 257.962 C 65.874 257.962,65.703 257.604,65.417 257.166 C 64.864 256.322,64.650 256.182,64.650 256.665 M57.727 285.897 C 58.211 285.971,58.928 285.969,59.320 285.893 C 59.711 285.817,59.315 285.757,58.439 285.760 C 57.564 285.762,57.243 285.824,57.727 285.897 M52.425 297.936 C 50.719 298.369,49.360 299.490,49.370 300.454 C 49.376 300.962,49.539 300.836,50.076 299.909 C 50.810 298.643,51.366 298.380,53.484 298.298 C 54.195 298.271,54.777 298.093,54.777 297.903 C 54.777 297.461,54.267 297.468,52.425 297.936 M49.374 301.812 C 49.368 302.196,49.516 302.605,49.703 302.720 C 50.252 303.060,50.297 302.762,49.826 301.910 C 49.401 301.143,49.385 301.140,49.374 301.812 M49.682 303.305 C 49.682 303.371,49.896 303.604,50.159 303.822 C 50.550 304.146,50.637 304.125,50.637 303.701 C 50.637 303.417,50.422 303.185,50.159 303.185 C 49.896 303.185,49.682 303.239,49.682 303.305 M50.637 309.395 C 50.312 309.786,50.334 309.873,50.757 309.873 C 51.041 309.873,51.274 309.658,51.274 309.395 C 51.274 309.132,51.220 308.917,51.154 308.917 C 51.088 308.917,50.855 309.132,50.637 309.395 M48.248 309.575 C 47.763 309.768,47.908 309.833,48.859 309.850 C 49.545 309.863,50.006 309.773,49.885 309.651 C 49.553 309.320,48.962 309.292,48.248 309.575 M46.067 310.701 C 45.245 311.829,45.541 311.896,46.441 310.786 C 46.849 310.284,47.064 309.877,46.919 309.883 C 46.774 309.888,46.391 310.256,46.067 310.701 M45.705 314.471 C 45.814 314.985,46.143 315.590,46.438 315.814 C 47.131 316.341,47.735 316.369,47.070 315.844 C 46.792 315.625,46.327 315.016,46.037 314.490 L 45.508 313.535 45.705 314.471 " stroke="none" fill="#f0604c" fill-rule="evenodd"></path></g></svg>